<?xml version="1.0" encoding="UTF-8" standalone="no"?>
<svg
   xmlns:dc="http://purl.org/dc/elements/1.1/"
   xmlns:cc="http://creativecommons.org/ns#"
   xmlns:rdf="http://www.w3.org/1999/02/22-rdf-syntax-ns#"
   xmlns:svg="http://www.w3.org/2000/svg"
   xmlns="http://www.w3.org/2000/svg"
   viewBox="0 0 757.33331 252"
   height="252"
   width="757.33331"
   xml:space="preserve"
   id="svg2"
   version="1.1"><metadata
     id="metadata8"><rdf:RDF><cc:Work
         rdf:about=""><dc:format>image/svg+xml</dc:format><dc:type
           rdf:resource="http://purl.org/dc/dcmitype/StillImage" /></cc:Work></rdf:RDF></metadata><defs
     id="defs6" /><g
     transform="matrix(1.3333333,0,0,-1.3333333,0,252)"
     id="g10"><g
       transform="scale(0.1)"
       id="g12"><path
         id="path14"
         style="fill:#040307;fill-opacity:1;fill-rule:evenodd;stroke:none"
         d="m 1987.36,1826.93 c -10.8,0.34 -25.68,4.17 -26.64,4.19 -21.58,0.44 -43.96,-7.67 -73.2,-25.14 6.68,-17.18 3.48,-2.52 16.7,-27.86 L 1874.36,1766 c 1.8,-4.2 -0.59,-17.98 24.66,-11.35 11.41,3 13.71,12.95 19.62,21.47 l 10.04,-53.51 c -37.56,-32.52 -21.11,-29.68 -28.18,-70.76 -5.17,-30 5.19,1.14 -5.84,-16.49 12.35,-10.63 12.36,-0.67 36.33,-14.32 l -30.82,-15.25 c 38.92,-30.19 19.71,7.53 46.3,-38.38 16.97,-29.31 1.05,12.23 15.44,-19.28 -12.19,-4.71 15.2,6.9 -8.39,-1.45 -10.02,-3.55 -8.65,-2.79 -14.69,-6.49 16.17,-13.94 14.42,-21.17 41.33,-22.67 -10.54,-22.5 -11.03,-10.64 -5.3,-28.47 11.67,-36.37 31.21,-48.47 59.8,-75.75 -1.55,-1.34 -4.42,-0.8 -5.09,-3.45 -3.27,-12.87 -12,-4.46 -18.21,-20.34 22.44,-25.85 53.59,-43.69 72.46,-71.85 -17.27,-36.75 -22.13,-11.09 -8,-60.94 l 48.41,-18.45 c -10.88,-31.7 2.22,13.01 -7.65,-15.31 6.33,-6.97 10.81,-10.75 16.28,-20.81 l 57.05,-52.55 -32.82,-7.05 c 35.48,-26.75 68.12,-55.66 66.47,-101.75 l 24.3,-0.25 -8.35,-33.4 c 0.11,-1.35 2.56,-14.287 2.61,-19.193 17.05,10.004 13.58,7.898 32.74,15.093 -4.82,-32.902 -7.75,-22.898 -5.19,-57.679 l 33.27,-24.07 -19.22,-19.746 c 106.08,-76.176 -5.91,-38.063 93.85,-130.653 -7.92,-20.636 -5.11,-15.418 -16.4,-23.797 l 9.87,-4.476 c 1.1,-0.477 4,-1.5 5.38,-2.117 l 25.1,-15.387 c 1.3,-1.199 2.47,-3.297 3.72,-4.527 1.25,-1.227 2.52,-3.285 3.77,-4.477 l 25.74,-16.601 c -6.86,-20.934 -5.93,-12.961 -11.64,-35.602 l 29.37,-0.488 c -12.09,-54.891 44.25,-63.66 37.45,-96.707 -2.31,-11.223 -12.1,4.441 -7.61,-40.578 37.98,0.433 -6.34,1.601 32.77,4.468 l -11.52,-28.965 c 62.15,-44.156 20.93,-12.242 53.09,-72.953 1.55,-0.496 4.25,0.817 4.8,-0.953 l 16.68,-5.012 c 14.92,-5.703 -6.87,-27.566 -8.42,-29.449 24.11,-31.465 13.47,-26.172 25.57,-53.336 8.56,-19.187 14.27,-12.121 24.96,-31.57 l 65.02,-100.641 c 10.21,9.762 10.58,12.075 29.99,16.047 -22.16,-21.582 -13.23,-15.363 -27.72,-39.773 9.75,-13.192 16.31,-17.106 25.39,-29.059 l 75.45,-80.2498 34.75,8.086 12.83,-26.3789 c 22.2,12.8984 13.21,18.2578 44.58,8.4882 1.46,39.8205 -7.95,28.6172 36.92,26.7891 -15.12,26.4334 -12.08,6.3711 4.68,36.6174 22.83,41.195 -11.59,23.344 30.66,37.355 -27.22,11.297 -11.87,5.18 -28.73,27.211 9.7,21.727 -0.94,5.414 20.68,22.867 -5.92,20.395 -11.29,29.809 -8.04,51.801 5.02,33.93 -8,65.496 17.93,90.957 -23.25,17.563 -15.6,-4.058 -19.55,16.821 -0.24,1.21 -0.18,3.683 -0.11,5.003 0.09,2.098 7.02,17.817 8.04,20.25 -2.22,-1.187 -5.38,-1 -6.42,-3.988 -4.21,-12.16 -18.03,-8.18 -27.88,-3.777 19.91,6.804 29.74,12.918 45.87,29.137 -14.52,9.156 -23.06,-0.95 -29.02,24.773 -1.21,5.227 2.16,24.887 -1.98,46.602 l -35.69,23.792 c 27.57,22.727 14.39,0.536 25.3,23.793 -21.59,18.473 -33.04,35.942 -62.05,46.434 4.64,37.543 -2.31,6.285 8.08,32.879 l -29.97,12.785 c 32.26,40.156 -12.1,28.363 -23.55,58.805 0.38,29.742 0.85,9.988 4.62,39.242 l -9.71,5.613 c -0.86,0.598 -3.62,2.02 -4.66,2.801 -1,0.766 -3.21,2.234 -4.28,3.152 -23.2,19.825 6.44,15.653 -35.74,25.789 l 14.12,40.672 c -47.18,14.399 -15.77,13.696 -43.13,-5.226 l -0.32,38.437 c 1.24,0.953 3.42,4.157 3.94,2.891 l 16.5,12.965 c -18.08,13.535 -13.11,7.679 -26.02,12.039 -5.9,1.992 -4.75,-0.121 -11.42,4.633 l -44.59,78.5 c 20.9,14.527 -3.56,-10.239 26.09,0.082 -3.52,25.535 -22.29,26.109 -38.27,46.379 -1.02,1.29 -2.06,3.44 -3.04,4.81 -23.13,32.38 -26.33,57.82 -21.09,91.34 l -43.75,13.95 8.4,41.14 c 7.74,19.34 -5.14,20.74 -24.75,28.59 l -28.72,8.91 c 3.83,10.25 -5.44,32.63 -11.33,50.31 l 18.58,12.25 c -14.38,21.64 -8.12,11.38 -15.73,43.72 -28.9,-3.9 -21.52,-11.9 -34.43,7.48 l 19.31,9.55 c -16.31,19.41 -31.14,17.45 -50.59,30.11 -2.06,43.6 0.1,8.92 11.28,45.56 -14.09,7.62 -4.94,-2.45 -18.86,11.97 l -7.48,12.04 c -0.42,0.91 -0.6,3.3 -0.96,4.23 l -34.3,60.27 c -10.23,27.27 -26.77,37.69 -33.33,71.84 l -20.92,-3.38 c -3.06,6.93 -19.74,-7.76 9.68,19.52 -1.86,1.34 -5.13,5.23 -5.88,3.53 l -50.09,102.26 c -15.11,30.24 -9.43,25.91 -32.42,39.68 25.2,22.04 -3.78,4.46 -1.71,61.86 l -36.94,-17.16 18,36.79 c -62.84,5.32 7.91,25.67 -50.79,18.89 -1.01,34.27 -2.96,25.57 -17.42,48.83 -8.94,-1.87 -19.29,-3.1 -28.21,-6.55 l -15.24,-7.99 c -24.22,-11.51 -103.73,-17.26 -129.55,-1.28 -1.68,1.04 -3.24,2.69 -4.86,3.83 l -20.41,16 c -12.27,-21.38 2.17,-15.81 -7.93,-35.74" /><path
         id="path16"
         style="fill:#040307;fill-opacity:1;fill-rule:evenodd;stroke:none"
         d="m 517.609,101.559 c -1.406,28.203 -5.66,35.125 -25.476,50.73 31.867,47.324 -5.735,-30.246 11.117,19.109 8.887,26.032 -1.367,25.536 7.063,38.125 0.066,0.102 16.449,13.844 16.839,14.145 l -8.269,7.168 c -5.641,8.531 -2.961,1.273 -8.543,16.625 1.078,1.902 2.551,7.172 3.101,5.789 l 13.543,18.004 -31.32,9.019 c 2.078,15.887 6.32,18.379 -2.184,34.602 l -13.292,13.5 c 26.929,5.523 7.183,-8.121 15.664,17.434 l -8.02,-11.61 c -26.305,29.512 -6.117,3.281 -28.816,13.949 -10.762,5.051 -10.508,12.016 -29.77,22.536 12.422,9.07 0.969,3.488 17.133,7.703 l 15.824,2.672 c 0.934,0.195 3.383,0.511 4.906,1.222 -15.8,29.528 -4.308,21.582 -45.726,19 l 20.426,8.297 c -0.329,41.086 3.722,29.227 -16.477,52.016 l 12.789,19.539 c 0.824,0.957 3.102,2.801 4.609,4.258 -21.546,22.742 -19.101,35.601 -3.375,63.441 -11.445,7.531 -10.332,6.043 -21.843,14.961 11.867,30.695 10.836,9.094 10.152,36.285 -0.723,28.434 -2.566,16.723 3.469,43.922 l -4.313,21.699 c -0.316,32.692 -3.859,19.567 6.785,41.746 l -31.445,13.36 c 16.633,7.586 16.203,10.004 25.363,31.082 l 17.75,58.664 c -5.363,1.715 -11.332,-3.867 -21.253,-9.836 4.91,58.066 -7.372,21.023 23.14,32.777 l -25.273,28.422 24.371,8.953 -23.098,27.016 c 13.227,17.094 19.934,68.211 -13.722,85.39 35.734,41.877 17.347,57.687 20.484,111.267 2.383,40.73 -5.863,17.57 18.332,35.9 -15.184,26.2 -23.231,15.62 -1.473,52.86 h -22.676 c 0.223,46.54 -11.82,64.93 -9.406,114.21 1.93,39.35 -3.527,-40.96 8.621,22.19 l -11.84,97.43 c 35.372,27.28 28.813,50.2 64.512,88.07 32.391,34.37 14.949,8.33 32.934,11.2 -3.559,17.32 -3.953,18.76 -17.153,27.04 l 35.129,22.65 c -27.765,10.7 29.403,-8.69 -11.75,2.71 -6.105,1.7 -5.484,0.85 -9.16,3.12 4.488,46.3 -2.621,6.77 12.18,26.88 11.332,15.39 18.707,-14.88 8.812,35.71 25.09,-11.25 11.973,-14.9 31.196,2.01 l -27.043,18.8 c 17.301,16.62 10.172,14.99 -0.762,35.56 2.484,0.73 6.57,0.45 7.703,0.92 l 8.195,39.01 -27.109,-8.2 c 1.051,14.45 3.176,24.01 0.524,38.27 -0.133,0.71 -6.208,16.9 -6.274,17.06 -12.187,30.2 -12.187,19.94 10.707,42.31 -9.441,2.16 -24.469,4.39 -33.547,7.15 -32.211,9.83 -9.422,-0.55 -25.945,13.5 -1.125,-1.46 -2.547,-2.19 -3.223,-4.5 -5.359,-18.42 -32.308,3.03 -60.23,-38.91 -17.332,8.09 -25.281,17.63 -39.653,29.57 l 0.723,-17.52 c 1.457,-13.55 21.395,-8.16 -5.226,-18.18 -27.86,-10.46 -13.086,1.36 -24.067,6.29 -13.555,6.09 -14.199,6.23 -26.949,9.38 l -2.18,-19.15 c -22.222,9.67 -0.734,1.67 -0.64,1.52 7.57,-11.44 5.07,4.28 8.121,-15.95 -21.18,-11.82 -46.516,-36.92 -61.399,-39.22 -40.008,-6.17 -34.531,-11.22 -71.343,-41.84 -7.598,-6.33 -18.247,-18.65 -33.02,-14.93 l 16.957,-18.3 c -37.535,-25.72 -26.195,14.19 -19.926,-36.52 -2.379,1.13 -5.75,5.82 -6.902,3.82 L 111,1639.48 98.6133,1614.4 c -4.7305,-17.18 3.1017,-24.74 2.9217,-28.24 -1.074,-21.73 -22.5936,-18.67 -7.6248,-55.88 -37.4024,-0.78 -48.4805,-28.74 -32.6524,-60.17 l 6.625,-9.22 C 33.1563,1439.7 53.9336,1441.87 42.1563,1415.05 l -4.7657,-9.01 c 17.0664,-19.47 13.7617,-38.08 5.7032,-67.08 15.1367,-5.64 -4.9258,-10.55 14.0156,-1.25 2.9492,1.45 9.6445,10.18 9.7383,10.33 -2.7149,-26.87 -2.4336,-30.82 -21.2422,-45.77 10.5468,-8.69 16.1015,-7.39 20.6172,-23.8 l -7.8204,-5.85 c -16.0468,-19.03 -4.0039,-22.07 -25.6875,-41.73 15.0625,-14.16 18.7071,-20.87 29.2735,-39.66 -1.3594,-1.47 -3.6445,-1.52 -4.375,-4.14 l -23.8867,-19.65 c 20.3632,-36.07 -27.39847,-32.17 28.7695,-37.76 L 32.707,1113.86 c -1.4609,-0.9 -3.9804,-2.52 -5.7343,-4.06 l 26.4921,-9.91 c -1.4453,-2.83 -6.3515,-12.49 -7.1015,-14.34 -4.5156,-11.26 -3.8867,-9.09 -7.5781,-21.21 1.8476,-1.52 5.0586,-1.13 5.7148,-4.37 0.7227,-3.57 7.5977,-7.5 8.4297,-9.01 3.4492,-6.21 3.0742,-4.6 2.9141,-13.78 -15.2969,16.42 -6.5938,16.84 -26.2657,3.37 8.5782,-20.17 0.4844,-22.61 34.0977,-18.94 -17.9297,-24.38 -14.6055,-9.99 -28.4688,-39.403 19.0743,-16.469 1.3985,-9.844 30.3594,-15 -37.4766,-19.078 -9.7422,2.102 -17.5469,-28.543 -0.2773,-1.101 -0.7578,-3.332 -1.1484,-4.445 l -5.0586,-9.34 c -0.8359,-1.453 -2.4844,-3.363 -3.4297,-4.824 -10.9609,-16.946 -2.8203,-8.442 -16.9375,-22.133 l 8.4414,-7.977 c 0.4141,-0.297 11.3828,-7.05 11.8672,-7.324 L 7.30078,860.188 33.2422,845.082 c 1.3281,-0.648 4.1094,-1.766 6.0859,-2.801 -11.8398,-22.566 -0.9179,-16.453 -8.3906,-45.379 21.6289,4.192 6.5859,-0.914 27.9414,14.266 9.6758,-52.547 -6.2851,-29.512 -18.957,-56.137 15.0234,-16.793 16.5117,-12.429 18.5976,-39.648 L 22.832,675.73 41.0977,657.52 c 1.0351,-1.079 3.2265,-3.457 4.0859,-4.364 0.8555,-0.89 2.7344,-2.84 4.207,-4.144 C 32.5,619.387 42.5977,656.535 35.7969,616.914 l 27.9531,9.414 c -3.0703,-11.652 -1.3672,-4.965 -6.25,-13.863 -5.7812,-10.527 -0.3555,3.773 -8.7539,-16.047 l 22.3086,-20.906 c 0.8828,-0.77 2.9726,-2.332 4.3828,-3.59 L 26.4023,559.734 C 33.25,549.57 46.2617,549.066 58.1484,546.137 30.5156,527.418 51.9063,549.496 40.6016,522.406 l 31.0429,-10.293 c -1.1601,-1.172 -3.0351,-1.304 -3.5781,-3.402 -5.0391,-19.406 19.1094,16.824 -17.5039,-14.875 l 0.7383,-73.867 c 4.4609,-13.781 1.8555,12.879 7.9883,-23.02 l -38.4336,-3.472 c 9.25,-11.813 -0.8321,-7.372 15.0664,-14.071 4.2304,-1.789 19.125,-4.465 22.9844,-5.406 3.0156,-38.355 -2.4258,-14.012 -3.8321,-47.238 5.5625,-1.645 6.8203,0.164 18.0156,-9.938 L 56.9102,294.707 c 33.5742,-19.883 42.3867,-11.512 20.4961,-29.598 l 37.2927,-6.004 c -19.1677,-58.574 -13.695,-14.855 8.899,-73.984 14.422,12.242 20.324,15.68 48.539,14.371 l -6.407,-43.597 c 20.926,2.168 10.52,0.535 29.247,12 l 7.882,-12.59 c 9.782,-10.797 29.641,4.16 1.407,-25.375 46.882,-9.18 66.32,-34.6683 85.879,-72.5511 1.593,1.3867 3.589,6.1172 4.382,4.5547 1.961,-3.8398 6.899,6.6055 9.368,7.6719 41.468,17.9023 34.855,-17.2383 24.128,-46.8828 46.278,8.4023 16.844,9.6484 54.063,6.2851 32.539,-2.9414 13.723,1.4883 52.719,21.2539 13,-53.96483 -17.278,-8.5078 1.843,-35.7734 0.825,0.582 1.844,2.9531 2.071,2.1758 l 49.207,33.4414 c 18.762,15.6875 2.847,17.1289 37.953,24.6328 -7.184,26.0317 -13.02,16.0937 -8.27,26.8207" /><path
         id="path18"
         style="fill:#040307;fill-opacity:1;fill-rule:evenodd;stroke:none"
         d="m 5586.18,1861.12 c -2.47,1.55 -5.21,3.53 -7.31,4.77 l -30.53,15.47 c -7.41,-16.24 -8.73,4.19 5.67,-23.6 -27.56,-1.58 -14.22,-0.56 -38.51,-8.97 1.73,20.26 5.04,20.83 -1.14,31.84 l -29.47,-25.27 c -1.68,1.33 -3.79,3.27 -4.91,4.13 l -14.38,10.76 c -1.91,1.1 -13.15,5.75 -15.83,6.65 -14.65,4.95 -26.74,7.05 -36.26,11.27 l -7.93,-26.17 c -20.95,8.41 -17.83,1.93 -39.26,6.91 -41.93,9.75 -27.23,13.87 -61.47,-11.48 6.45,-19.61 -2,-1.23 11.08,-18.44 l 13.83,-16.41 c -19.66,7.45 -23.29,10.76 -36.55,19.12 l -37.06,-44.56 c -1.86,1.96 -4.29,4.84 -5.29,6.17 -0.86,1.14 -3.61,4.12 -4.44,5.31 -0.59,0.84 -2.26,3.33 -2.72,4.06 -10.94,17.46 -0.07,3.82 1.23,3.74 -16.68,-14.53 -14.32,-19.83 -16.83,-42.8 -33.72,-3.72 -54.28,-15.68 -71.13,-47.72 l -14.18,-78.91 c 6.93,-47.97 -2.59,-111.01 40.72,-150.86 l 94.24,7.73 c 0.11,0.68 0.62,-1.71 0.93,-2.55 22.85,22.1 21.65,13.58 46.72,0.39 1.4,-28.16 -1.02,-47.69 -13.78,-68.74 0.11,-0.06 20.37,-9.25 22.58,-10.4 l 3.94,7.53 c 3.61,3.69 -6.99,0.76 10.71,3.85 l -7.25,-28.57 c -23.61,-6.05 -10.19,8.37 -41.16,-15.86 l 37.94,-39.66 c -17.69,-42.4 -19.74,-62.19 9.15,-77.58 l -19.11,-17.97 c -0.8,-0.54 -2.81,-1.68 -3.62,-2.09 -18.59,-9.73 9.86,14.17 -18.57,-5.46 16.95,-22.86 12.93,-26.64 12.45,-55.52 27.77,-11.37 26.93,-5.54 20.59,-30.62 -4.85,-19.13 -13.84,-29.99 -20.77,-38.9 10.1,-23.55 -3.82,1.09 9.97,-15.09 l 15.3,-13.43 c -24.53,-7.59 -17.35,-3.8 -30.06,-22.76 6.15,-26.67 -8.3,-3.58 18.9,-21.42 -38.22,-15.38 -15.22,-36.98 -35.87,-69.354 l 15.41,-18.207 c 18.31,-26.023 20.65,-30.238 17.65,-66.929 l -1.05,-11.231 c -4.18,-31.41 -9.04,-18.957 2.71,-46.371 -14.56,10.281 -9.95,8.535 -26.8,12.93 3.96,-17.938 2.92,-9.106 4.79,-14.453 l 22.02,-31.868 -16.35,-99.359 c 11.46,-5.527 10.95,-5.16 24.34,-9.992 l -11.85,-27.879 c -0.79,-1.387 -2.74,-3.84 -3.44,-4.945 -0.73,-1.153 -3.51,-6.11 -4.07,-4.825 -0.58,1.34 -3.15,-3.027 -4.66,-4.589 21.1,-29.563 15.47,-0.758 14.52,-38.622 l 5.07,-41.32 c 0,-0.844 -0.46,-3.074 -0.53,-3.887 -0.09,-0.824 -0.97,-2.968 -1.11,-3.785 l -22.07,-47.219 23.18,-47.39 c -1.06,-0.328 -2.84,-0.094 -3.32,-0.141 l -12.98,-1.273 c -20.46,-5.067 -2.08,2.879 -15.93,-7.746 l 15.05,-6.95 c 1.26,-0.468 3.59,-1.488 4.89,-1.902 17.12,-5.387 10.65,4.496 32.1,-8.223 -22.77,-8.562 -11.25,-3.253 -33.52,-21.542 4.21,-27.696 17.96,-5.801 15.39,-32.817 -4.18,-43.887 -10.07,-7.824 -14.07,-39.305 -1.26,-9.894 7.73,-7.699 -2.61,-30.445 -22.74,-50.055 -5.23,-26.027 3.88,-64.586 l 3.26,-29.027 c -2.28,-20.309 -10.25,-63.508 -5.61,-91.727 -23.59,-10.687 -14.44,0.66 -24.69,-21.402 l 18.52,-10.238 c 1.38,-0.832 3.31,-2.098 4.75,-2.9769 l 36.83,-18.5039 c -1.48,-1.1875 -3.99,-2.5352 -4.74,-3.1172 -20.27,-15.6055 -16.15,-10.7539 1.69,-31.043 24.5,5.6484 16.25,-4.168 28.4,16.4102 1.19,-1.2149 2.99,-3.0157 3.57,-3.6719 l 12.28,-15.8945 c 43.45,7.875 59.43,-9.754 95.06,5.1406 l 8.05,-23.418 c 20.98,6.5117 57.66,16.0352 70.36,29.9297 l 25.19,25.6211 c 21.72,30.9178 29.4,33.3168 30.77,46.7228 2.07,20.055 1.89,-1.809 -6.38,22.402 l 22.61,20.594 c -0.18,0.57 -0.66,2.555 -0.68,3.164 -0.04,1.488 3.18,7.176 3.64,8.449 l 7.09,12.16 c -22.08,3.719 -12.99,-1.351 -24.74,13.442 9.38,12.094 21.7,34.32 28,55.519 -36.97,46.864 -19.53,66.621 -0.74,103.106 -9.88,23.265 -15.13,19.285 -15.08,34.594 9.8,-5.2 -0.86,0.757 9.33,-11.149 14.48,-16.898 4.02,-7.613 17.18,-15.445 20,35.629 0.87,19.004 -11.54,59.722 -2.02,0.59 -4.97,1.059 -6.17,1.258 l -21.44,2.395 c 14.12,20.648 17.71,37.441 9.95,55.512 l 7.77,6.82 c 0.86,0.832 2.83,2.621 3.78,3.578 0.96,0.953 2.88,2.613 3.83,3.617 5.25,5.57 9.51,12.035 13.79,17.711 -8.5,47.199 -31.48,98.262 -15.38,141.68 8.04,21.691 7.53,26.219 10.65,51.5 l -24.44,6.922 c 29.25,28.605 5.14,15.773 4.61,25.402 -1.32,24.516 27.25,32.312 -3.23,75.867 17.77,31.981 6.42,-0.308 20.38,33.824 -28.56,14.446 -4.98,-1.636 -19.44,26.09 l -23.99,30.684 48.66,-7.922 c -2.87,20.129 -5.08,18.117 -9.19,40.57 l -33.52,12.231 33.16,33.066 c -22.67,10.997 -25.7,-26.562 -33.09,25.037 l 30.31,-2.28 c -0.86,1.95 -2.58,4.27 -3.28,5.46 -17.84,30.56 -8.38,20.86 -5.13,37.61 2.84,14.62 -11.27,30.83 -11,43.56 0.02,0.73 0.73,2.63 0.87,3.39 l 9.87,34.71 c 5.04,28.31 -0.84,38.47 19.71,46.46 1.35,0.53 7.2,0.33 9.77,0.89 -5.25,5.01 -13.54,10.11 -17.07,19.78 l -1.85,18.99 c -0.31,1.29 -1.08,3.49 -1.47,4.82 -7.39,24.8 -13.63,32.66 -32.07,44.2 32.88,15.06 8.62,27.9 46.61,56.41 -12.79,26.22 -10.71,7.6 -16.02,32.41 l 17.42,1.98 c 2.97,-0.25 8.69,-7.38 7.24,3.84 -3.23,25.33 -10.8,15.45 -24.73,25.22 1.63,1.04 3.99,2.4 4.94,2.99 l 14.78,9.52 c 0.74,2.44 3.22,2.26 4.86,3.35 -25.09,25.72 -12.5,10.46 -21.38,54.03 l -34.64,-5.47 c 6.2,21.82 24.98,32.97 35.1,54.54 -19.61,9.23 -5.32,-4.93 -25.77,18.08 l 24.24,13.65 c -19.58,33.55 -20.8,5 -1.31,47.58 -7.35,15.56 -6.33,9.94 -11.79,21.33 l -7.68,20.63 30.27,12.25 c -32.43,7.9 -1.64,-6.03 -28.59,16.22 22.28,24.67 7.36,20.43 14.89,36.64 16.05,34.61 12.27,-16.82 17.68,2.09 0.33,1.15 2.14,-1.51 3.36,-1.85 -1.11,40.82 2.39,52.5 -29.27,49.78 -0.56,-0.05 -3.53,-0.82 -3.93,0.49 -0.45,1.46 -2.99,0.44 -4.36,1.04 l -1.12,20.2 c -0.14,12.51 2.74,8.83 -2.5,19.46 17.48,15.08 -3.04,37.19 -24.98,35.37 l 4.71,32.32 -29.08,27.86 6.12,-28.42" /><path
         id="path20"
         style="fill:#040307;fill-opacity:1;fill-rule:evenodd;stroke:none"
         d="m 4541.11,1859.87 c 8.93,-3.08 12.46,-26.95 -33.28,-20.5 l 0.63,-46.71 c 11.41,6.38 5.58,6.03 18.48,7.44 36.08,3.97 4.29,1.53 17.72,-5.07 l -54.14,-13.05 -35.96,-67.3 29.68,-15.17 c -31.59,-52.09 19.82,-38.4 -27.99,-63.56 9.1,-9.07 9.71,-6.86 10.53,-15.43 2.7,-28.73 5.52,23.82 -6.92,-24.29 50.03,-2.84 41.69,-18.34 61.46,-58.97 14.98,-30.75 -17.3,-3.21 8.67,-47.65 12.46,-21.33 8.12,-9.85 15.87,-30.32 l 26.76,-60.22 c 0.97,-1.7 7.44,-12.37 9.47,-15.69 l 6.55,-10.38 c -14.16,-7.86 -14.69,-8.59 -18.79,-17.14 -14.73,-30.69 -20.42,-39.19 8.51,-60.86 -42.82,-10.28 -24.25,-49.75 -26,-64.21 l -32.56,-65.92 c -2.76,-3.88 -4.48,-1.57 -6.78,-7.86 -4.51,-12.4 -2.44,-5.24 6.09,-22.07 -13.67,8.04 -12.36,5.77 -30.64,13.6 0.07,-27.8 -7.75,-52.01 -27.84,-59.47 -18.77,-6.94 -22.24,7.18 -33.85,-13.81 -9.1,-16.47 -2.28,-12.71 4.51,-28.97 -28.59,3.71 -31.81,0.23 -45.23,-8.57 -22.96,-15.09 -11.67,1.39 -16.54,-31.72 -17.91,-2.38 -15.18,-1.45 -32.06,-7.289 l -27.14,-13.516 c -26.8,-18.433 -57.15,-17.32 -75.53,-34.109 -38.78,-35.406 -1.06,-47.734 -74.8,-45.156 -3.61,-19.848 -14.56,-29.817 -24.24,-38.453 l -19.8,-29.161 c -0.46,1.227 -1.46,-4.148 -3.2,-8.843 l -31.63,5.441 c -13.41,-23.125 0.67,-1.226 -14.26,-17.441 -14.05,-15.258 -14.11,-29.504 -23.86,-47.688 -16.75,-31.219 -4.65,-9.301 -27.54,-28.851 -21.09,-18.012 5.77,-13.813 -32.9,-8.758 6.49,-19.574 -0.88,-13.246 15.6,-22.969 -31.86,-2.32 -21.56,-14.348 -31.71,-38.516 -7.05,-16.816 -15.36,-22.453 -18.41,-45.992 l -33.09,-8.359 c 0.06,-24.176 -0.14,-22.039 7.57,-37.953 l -36.06,-6.621 c 7.23,-24.114 7.93,-40.032 35.99,-32.582 -10.54,-30.723 -3.7,0.554 -14.05,-29.563 l 36.33,-14.051 c 32.66,-11.109 4.77,2.754 25.35,-25.347 9.19,5.375 21.71,12.082 33.76,18.527 l -6.05,-19.398 c 63.4,11.007 12.13,5.011 61.13,-8.536 6.24,4.368 -2.05,-0.195 13.79,8.864 9.55,5.468 6.33,-12.086 13.93,7.203 1.47,3.726 5.25,2.633 7.65,4.008 l 9.09,-23.504 c 2.44,22.023 0.26,9.64 9.46,19.449 32.73,-19.691 -3.18,-14.82 45.81,-14.332 l 23.94,-2.024 c 0.81,-0.234 4.05,-3.496 4.63,-2.015 0.61,1.558 3.21,-1.516 5.7,-2.535 l 14.5,20.765 c 37.04,-8.156 2.11,0.555 29.49,-13.004 l 15.73,32.629 c 0.99,1.407 2.39,3.239 3.38,4.598 23.81,32.805 38.03,66.031 83.56,74.266 -6.32,14.589 -5.18,7.632 -4.42,27.742 20.85,-9.629 21.14,-6.555 41.26,-1.664 14.56,25.843 8.97,8.195 8.28,41.972 42.69,5.762 18.77,-0.484 25.61,11.036 l 5.6,13.187 c 17.38,29.039 38.11,21.254 57.84,52.082 31.98,-5.285 -11.59,-7.359 32.84,-8.176 0.34,41.504 -15.46,1.977 2,39.582 l 30.12,-0.679 c 23.79,58.132 30.88,36.531 63.72,71.843 l 11.68,15.606 c 1.28,1.023 4.84,2.211 6.32,2.933 73.38,35.465 35.12,-2.707 50.51,39.668 10.64,29.254 29.05,20.133 64.76,19.778 l 3.79,46.152 50.64,-5.91 c -8.07,43.445 5.36,12.504 -16.04,28.832 l 16.77,42.732 c 11.35,-4.48 13.48,-9.62 17.16,-12.814 10.24,-8.898 -0.74,-7.625 12.44,-8.188 l 34.15,66.132 -25.51,4.77 c 35.88,10.1 6.98,-6.98 27.68,20.02 12.89,16.8 28.42,33.72 32.56,53.47 0.26,1.26 -0.56,3.92 -0.34,5.11 0.21,1.07 -0.36,3.62 -0.09,4.6 l 16.89,14.51 c -8.23,8.08 -14.3,13.01 -20.21,22.01 28.11,34.64 36.16,81.71 58.91,123.05 -36.7,15.18 -1.02,-6.02 -30.39,5.63 12.94,21.48 21.21,2.92 31.97,31.73 -10.76,3.94 -26.07,-8.9 -29.64,8.86 -0.46,2.3 -1.97,3.46 -3.65,4.29 l 23.7,36.25 c 18.57,18.95 6.76,-8.4 22.72,22.08 -19.65,5.36 -5.12,-1.25 -34.94,-8.07 l -17.06,34.97 22.61,12.65 c -18.79,26.83 -13.77,11.6 -13.38,28.92 l -3.78,24.63 c 0.11,0.92 0.9,3.15 1.15,4.07 0.82,3.2 4.09,4.43 9.23,21.69 l -29.26,65.85 c -0.7,21.74 6.26,6.47 -3.71,26.47 l -8.63,-40.22 -27.47,21.51 c -1.02,0.57 -4.2,0.54 -4.93,2.84 -0.72,2.27 -3.33,1.72 -4.8,2.85 6.08,1.72 8.77,1.41 8.96,1.47 19.93,5.66 7.84,2.04 16.64,6.46 l -11.36,18.18 c -7.56,20.55 -1.47,9.15 -3.71,21.16 -3.57,19.22 6.82,9.29 -12.28,28.56 -23.89,-26.9 -7.09,-24.54 2.02,-35.61 l -32.38,2.73 c 20.34,12.36 11.68,0.76 13.84,28.43 -25.01,16.72 -17.75,-1.91 -33.4,21.56 l -13.53,32.67 -28.53,-36.91 c 15.9,16.33 9.24,6.06 15.27,30.89 l -73.32,16.05 c 1.54,0.86 4.05,1.59 4.85,2.14 l 17.35,20.12 c -21.84,14.76 -6.62,7.25 -28.16,13.38 l -74.53,15.47 c -0.77,0.09 -3.67,0 -4.21,1.59 -0.55,1.64 -2.84,1.22 -4.17,2 6.71,25.89 2.36,15.91 23.96,23.79 l -57.44,2.98 c -8.05,26.7 -7.84,20.27 -29,31.19" /><path
         id="path22"
         style="fill:#040307;fill-opacity:1;fill-rule:evenodd;stroke:none"
         d="m 1989.87,1105.62 c 8.99,48.07 13.53,-11.66 20.48,38.08 l -22.99,-15.78 c -10.86,32.44 -24.89,25.8 -55.52,21.81 -13.54,-20.49 -27.6,-84.54 -28.41,-82.03 -0.42,1.32 -3,-2.92 -4.38,-4.49 29.04,-1.09 13.18,6.06 29.52,-11.42 -56.02,-13.26 17.97,3.96 -41.72,2.01 0.74,-25.79 -0.17,-19.25 9.31,-37.05 l -25.04,-23.039 c 21.67,0.898 46.44,13.009 44.04,-25.887 l -18.14,-41.847 c 19.81,0.98 36.85,4.101 40.33,3.539 -9.94,-4.61 -28.74,-11.532 -45.74,-17.621 l 14.15,-53.532 c 0.01,-2.035 -0.43,-4.535 -0.44,-6.472 -0.02,-1.809 -0.46,-4.395 -0.44,-6.036 l 2.74,-16.988 c 1.04,-7.289 -6.01,-5.219 6.92,-22.531 -19.77,-8.625 -11.71,-2.031 -27.68,-19.574 l 33.89,-79.317 c -28.99,-16.097 -19.12,5.868 -31.6,-31.715 l 24.5,0.458 c 0.85,0.347 3.56,1.078 4.15,3.132 0.61,2.086 2.64,2.422 4.22,3.231 -7.07,-10.981 -1.86,0.691 -7.6,-14.899 -0.69,-1.871 -5.25,-18.246 -5.32,-18.871 -3.59,-32.863 -4.38,-16.683 11.4,-30.558 l -28.55,-5.946 c 14.43,-26.867 12.46,-16.797 25.5,-36.363 l -30.41,-39.691 30.11,-19.828 c -10.29,-10.774 -2.47,-1.118 -11.21,-13.997 -31.9,-47.05 -10.85,-44.257 0.14,-45.71 12.21,-1.622 3.53,19.05 6.08,2.488 13.17,-13.371 2.18,3.797 1.45,-10.742 l 13.99,-38.621 -33.83,-42.086 c 3.27,-7.7 11.3,-33.797 11.86,-35.372 1.58,-4.496 -1.08,-1.199 5.6,-10.332 0.05,-0.058 9.6,-9.164 10.03,-9.617 -18.3,-13.312 -12.74,-7.019 -19.21,-27.289 l 18.63,-12.215 c -18.18,-46.519 14.8,-17.668 -26.14,-57.168 l 18.94,-12.066 c 0.79,1.621 3.44,-2.559 5.18,-3.793 -1.54,-15.008 -1.37,-16.773 -0.01,-29.57 4.28,-40.309 2.45,-23.559 -11.77,-52.403 l 22.46,-21.4957 c 6.32,-9.2383 0.41,-4.918 -4.73,-22.5938 32.92,-1.2187 49.17,11.5703 70.77,-14.8125 l 7.84,-19.1719 c 12.17,-2.3906 32.46,-5.5351 43.94,-9.6562 30.75,-11.0274 8.6,2.2929 27.44,-20.168 l 66.41,21.0352 c 1.87,0.8711 8.12,4.6211 10.31,5.3007 29.95,9.3711 12.26,-7.5468 52.15,2.3165 l 53.23,1.789 c 24.14,3.4844 7.57,0.9844 19.69,8.7383 -31.42,20.582 -20.63,16.1875 -43.76,-0.4219 11.4,19.7031 4.42,5.0899 14.16,26.4727 44.64,4.0195 57.31,4.5547 85.92,32.2066 -7.13,14.387 -3.19,12.278 -12.66,28.981 l -2.92,31.726 c 6.14,35.211 16.61,20.028 8.04,51.547 l -4.7,11.653 c -0.94,1.593 -2.15,3.785 -3.24,5.164 l -21.24,11.738 36.24,19.949 c -30.07,7.176 -15.28,-1.629 -27.88,17.188 23.11,9.894 3.61,-8.485 12.16,10.176 7.77,17 -1.96,8.242 -1.88,9.449 l 9.5,24.468 -25.22,25.254 24.55,5.582 -17.06,21.965 c 11.74,6.446 8.05,6.899 15.86,15.86 -6.03,19.203 -10.96,11.914 -12.86,21.355 -0.51,2.504 -3.22,1.793 -4.8,2.731 19.94,3.566 26.54,13.316 31.31,15.574 -2.03,44.609 -9.46,24.433 -2.4,76.117 8.19,60.094 -20.01,-5.168 -1.58,54.238 -25.18,-5 -27.96,6.719 -50.08,20.324 11.03,6.141 9.53,-0.496 17.16,15.872 -17.53,6.296 -25.9,31.324 -42.1,47.586 l 9.19,6.519 c 17.94,16.281 13,-4.965 16.6,33.129 -7.93,5.277 -25.71,18.402 -41.65,7.746 -1.07,-0.719 -3.31,-6.75 -4.06,-5.184 -0.8,1.684 -2.41,-4.093 -3.78,-6.035 l -14.46,21.266 c -11.47,9.918 -0.7,3.387 -17.65,5.98 l 22.02,15.883 c -16.98,12.606 -27.37,2.922 -2.7,20.699 -45.3,1.293 -14.12,-1.199 -26.33,11.024 25.67,19.148 9.74,-3.203 14.28,23.797 -24.29,13.515 -38.14,25.074 -52.05,50.074 -24.46,43.961 -13.21,21.012 -17.97,67.594 -37.86,-21.731 -31.8,-4.356 -12.66,14.511 0.58,0.571 2.88,2.512 3.4,2.985 l 1.03,42.277 c -16.85,-9.211 -14.17,-17.441 -31.05,-33.594 -29.66,25.426 -0.91,7.993 -12.55,33.696 -1.99,4.394 -25.37,27.336 -26.73,28.656 -9.14,18.629 2.97,33.899 1.39,45.729 -2.85,21.51 -14.22,21.79 -26.36,30.41 l -30.02,28.92 c -53.97,30.43 27.42,-27.11 -14.93,7.6" /><path
         id="path24"
         style="fill:#040307;fill-opacity:1;fill-rule:evenodd;stroke:none"
         d="m 4660.07,394.336 c 1.26,-6.555 -8.05,-19.125 -15.86,-25.129 l -6.26,9.16 c -0.55,0.582 -2.31,2.278 -2.93,2.887 -5.29,5.16 -9.82,7.976 -16.19,14.519 -38.27,-23.796 -19.02,-3.843 -51.53,-9.414 -32.2,-5.527 -43.24,-6.82 -52.2,-25.586 -1.95,1.79 -8.5,9.344 -10.24,10.09 -15.97,6.907 -25.22,-3.238 -44.8,-7.914 l -4.83,30.043 -25.39,-4.715 c -1.02,0.086 -3.07,0.723 -3.97,0.918 -1.28,0.293 -6.42,3.403 -7.92,4.094 -0.78,0.367 -3.89,0.688 -4.46,2.734 -0.62,2.211 -3.18,2.11 -4.96,2.719 l -37.85,-28.152 c -0.58,1.336 -2.62,-2.629 -4.05,-3.801 -11.72,5.828 -23.88,13.258 -30.92,16.316 -37.99,16.524 -58.55,-18.125 -95.98,9.801 l -8.77,-8.816 c -1.04,-0.899 -3.81,-2.996 -4.76,-3.793 l -28.88,20.766 c -16.27,-23.961 -1.58,-12.981 -30.57,-14.067 l -38.05,-7.891 c -22.46,17.192 -18.13,3.59 -39.71,16.782 -10.82,6.613 -5.72,4.269 -13.14,6.855 -15.16,-23.457 -12.52,-24.441 -1.81,-43.277 l -58.37,14.062 c -1.83,0.473 -7.14,3.246 -8.85,3.532 -0.89,0.144 -3.18,0.691 -4.04,0.726 l -7.6,-1.75 c -45.72,-6.293 -41.49,21.067 -96.48,-11.633 -12.15,6.375 -9.75,8.149 -14.7,12.235 -7.34,6.039 -1.84,16.551 -19.27,1.308 23.52,-6.988 3.48,2.391 19.35,-15.332 l -26.83,-58.5 c -17.99,-45.113 19.35,-27.941 -17.37,-51.929 8.88,-36.18 -4.35,-9.184 17.03,-35.844 -35.53,-22.61 -3.37,-37.055 -37.11,-71.985 8.32,-6.546 -10.25,-22.042 34.96,0.657 -1.46,-1.977 -3.69,-4.34 -4.4,-5.891 -16.44,-35.644 -7.27,11.059 -6.31,-17.555 0.01,-0.461 9.14,-17.097 11.05,-19.972 14.7,-22.0198 1.61,-60.8948 44.78,-46.2737 52.59,17.8047 -27.52,-4.5547 14.69,5.7774 13.36,-19.5469 -3.24,-14.2657 13.89,-14.9766 2.18,-0.0938 7.26,2.6914 9.19,3.375 1.09,0.3828 4.62,1.0937 5.45,3.6797 0.91,2.8398 3.73,3.0625 5.74,4.4101 -6.54,-31.2695 -11.48,-18.3671 8.89,-38.7421 l 7.98,34.1718 c 18.03,-3.8008 9.42,-5.0664 31.97,-2.9765 l 3.25,-32.0664 c 19.12,14.6328 22.2,42.2929 49.1,31.9336 74.12,-28.5235 58.55,-7.9649 65.02,5.789 16.16,-26.7812 -0.98,-12.8047 29.51,-24.1015 8.77,14.2382 4.35,23.8203 6.28,32.4375 34.14,-9.0391 25.68,-8.879 18.62,-36.1758 20.62,3.5781 6.95,0.2812 15.26,6.5312 l 7.43,12.2774 c 6.56,-8.9805 8.34,-7.5664 15.86,-13.461 14.33,13.4805 13.28,12.1797 23.79,25.6133 l 9.47,-16.5351 c 15.56,-30.9571 -6.19,7.164 6.4,-15.3321 15.59,4.7305 18.21,9.8242 33.56,12.0274 18.55,2.6562 6.04,-2.5938 31.52,-2.7735 25.11,-0.1718 43.91,9.3282 73.61,1.3477 66.23,-17.7891 40.37,7.1289 91.3,-7.5039 l 7.93,18.0039 c 23.96,-5.3203 15.13,-3.1836 31.72,-18.8477 11.82,6.3985 29.74,20.5625 45.8,15.6094 16.78,-5.1836 -21.5,19.1172 6.57,-3.582 l 8.2,-11.8867 c 0.42,1.3789 1.77,-3.5665 2.89,-5.2149 36.43,16.9453 64.35,19.7734 99.77,-8.4766 9.87,12.2422 14.43,12.0821 -5,27.2188 40.29,-6.8672 57.73,4.5547 79.7,-25.5078 l 4.72,10.5586 c 0.68,1.4023 1.59,3.9609 2.41,5.4804 10.15,18.8008 11.9,19.7618 32.53,23.4102 l 15.86,-29.7344 43.03,56.6992 c 51.98,34.4257 12.47,11.4493 21.69,99.9297 24.38,-7.297 19.27,-7.773 36.93,2.492 -12.15,12.094 -37.44,53.692 -30.29,73.121 0.38,1.051 2.59,5.02 2.8,6.614 2.3,17.273 1.22,1.32 -2.99,19.691 -6.74,29.402 -3.1,6.547 1.17,40.324 -38.22,25.75 -20.31,6.34 -43.3,45.582 -42.87,-1.078 -31.99,7.059 -65.84,29.336 l 5.52,-26.894 c -43.64,1.574 -20.51,9.144 -38.89,-12.567 l -1.21,35.348 -73.17,-6.246 c -1.21,2.98 -4.04,2.64 -6.14,3.828" /><path
         id="path26"
         style="fill:#040307;fill-opacity:1;fill-rule:evenodd;stroke:none"
         d="m 2912.79,892.395 c -0.63,2.742 -3.48,16.222 -3.49,16.8 -0.47,18.035 1.02,11.871 1.43,16.215 0.1,1.164 2.21,10.785 2.13,19.86 -0.22,26.39 2.02,5.652 -4.28,31.832 12.05,13.187 2.41,6.347 20.4,11.101 l 10.13,44.597 c -7.19,6.22 3.08,3.82 -19.27,11.88 l 30.9,0.95 c -23.58,59.85 -4.71,5.38 -1.71,41.59 0.26,3.12 -10.34,6.58 11.46,40.57 -20.05,56.67 -16.61,35.97 -5.53,55.51 l -24.08,15.87 6.36,74.81 c -5.72,31.91 -9.22,64.7 5.78,80.89 -36.75,0.15 -16.47,-4.59 -33.57,11.08 l 30.18,-0.79 c -0.31,2.97 -3.8,24.83 -3.75,25.81 1.18,22.13 9.15,-7.97 3.82,19.15 -2.26,11.43 -21.44,-16.37 -0.45,50.77 l -24.38,19.57 38.17,10.27 -19.93,17.75 c -5.14,51.43 -1.11,103.35 -8.8,118.82 l 21.49,21.87 c -17.06,19.62 -8.89,12.97 -33.64,15.64 l 15.69,13.32 c 9.71,9.88 2.03,-2.3 9.67,11.85 -41.19,27.03 -21.69,11.65 -22.98,111.93 -62.1,50.2 -19.34,4.02 -38.92,48.39 -90.61,-6.44 -64.35,1.33 -87.24,12.19 -1.86,-1.86 -6.28,-5.37 -7.51,-6.31 l -30.27,-27.52 c -9.84,13.92 -10.13,20.75 -25.17,33.06 -10.6,-11.2 -18.88,-16.56 -30.95,-25.89 -50.03,19.27 -64.14,6.65 -107.59,-8.5 13.36,-99.88 -9.32,-27.49 -12.35,-93.72 -1.01,-21.76 0.54,-15.84 -10.49,-25.52 l -12.46,-9.27 c 25.06,-15.03 19.19,8.53 39.86,-26.6 -23.95,-11.8 -6.15,-7.72 -35.15,-11.4 l -6.42,-48.89 c -0.22,-0.68 -1.09,-2.79 -1.21,-3.49 -0.1,-0.64 -0.45,-2.68 -0.43,-3.36 0.38,-15.54 15.22,-18.37 5.19,-49.62 27.45,-18.98 7.58,9.56 22.3,-23.19 l -31.63,-12.79 c 22.81,-25.03 22.62,-7.98 20.16,-52.03 20.15,6.96 14.97,3.43 24.74,16.38 -4.13,-29.74 -9.25,-16.54 3.63,-35.88 12.75,-19.14 8.37,-1.48 0.27,-26.73 l 41.36,2.13 c 0.15,-63.17 -14.97,-6.43 9.95,-72.75 11.72,-31.15 6.11,18.35 1.62,-9.87 -0.14,-0.89 -1.3,-3.29 -1.54,-4.13 l -4.47,-10.54 c 17.94,-12.14 39.7,-31.38 60.25,-47.59 -3.98,-25.5 0.63,-6.7 -8.81,-31.72 10.52,-7.21 16.43,-11.68 30.02,-18.86 -20.09,-11.18 -18.74,-7.43 -27.1,-28.99 18.49,-11.4 -0.95,-7.55 29.43,-6.64 l -11.6,-21.74 c -0.87,-1.67 -2.31,-4.69 -3.06,-6.14 -0.74,-1.47 -2.16,-4.13 -3.04,-6.29 l 39.31,-0.34 c 7.16,-60.05 -2.09,-16.5 23.24,-29.96 l 23.36,-52.76 c 6.56,-40.51 -8.39,-28.1 26.36,-49.88 2.25,-88.158 -3.66,-79.916 39.39,-137.552 l 5.49,1.273 c 0.51,0.281 3.02,1.555 3.61,1.891 l 8.95,6.25 c 22.57,-28.571 -5.22,-8 23.79,-24.188 15.21,12.461 8.64,9.891 13.38,19.571" /><path
         id="path28"
         style="fill:#040307;fill-opacity:1;fill-rule:evenodd;stroke:none"
         d="m 804.496,635.031 15.965,-22.754 c -25.434,-30.914 -23.547,-26.652 -23.52,-39.191 0.082,-40.898 10.247,26.797 0.813,-9.848 l -23.027,-2.258 c 4.796,-14.031 3.636,-11.812 12.339,-20.082 L 766.41,493.313 c 24.645,-9.891 3.242,7.25 30.567,-7.922 -26.903,-25.864 -16.11,6.57 -33.985,-36.778 l -5.347,-16.093 c -3.551,-42.118 29.421,33.32 -9.368,-24.938 -24.582,-36.906 2.821,-30.508 -49.73,-42.508 l 6.629,-9.851 c -1.891,-1.641 -4.578,-3.274 -6.153,-4.336 -1.515,-1.035 -4.148,-2.973 -5.957,-4.215 -27.05,-18.684 -8.617,-1.149 -33.066,-35.766 l 23.398,-13.218 c 0.938,1.601 3.813,-1.782 5.735,-2.641 -40.403,-27.317 -3.531,-19.84 -41.367,-55.52 1.105,-2.398 6.277,-12.468 6.914,-14.25 10.695,-29.879 -8.571,-9.308 12.906,-25.402 -3.82,-38.715 -8.867,-27.941 0.434,-60.785 l -1.821,7.281 c -45.043,7.004 -11.426,6.828 -21.918,-17.836 l 18.106,-0.676 c -11.508,-16.664 -11.418,-21.796 10.074,-52.6793 11.461,-16.4883 30.066,-30.125 47.441,-31.793 1.489,-0.1406 3.758,-0.0547 5.301,-0.0195 27.793,0.5898 13.988,11.793 49.524,-0.4219 l 23,20.6445 c 20.699,-19.2929 2.378,-8.6601 31.714,-17.7851 26.164,20.6367 0.309,11.4453 27.196,15.8398 9.386,1.5352 17.308,0.3828 33.687,4.0196 11.594,53.9999 -8.472,3.3242 4.352,39.0389 21.387,26.699 80.644,-3.66 104.633,100.567 l 32.261,-8.954 -14.75,45.356 29.16,-4.844 c -6.09,62.395 -8.65,10.332 7.82,43.719 0.36,0.746 1.02,2.707 1.41,3.418 l 7.26,10.547 c 0.19,0.328 21.34,-16.235 7.01,31.121 l -13.89,9.062 c 12.42,7.879 16.45,12.45 36.48,18.118 -5.05,38.332 -10.87,22.316 14.82,45.328 -1.57,1.097 -3.99,2.269 -4.96,2.902 l -24.41,21.828 c 39.05,34.567 5.78,20.68 40.55,50.207 -27.7,16.684 -6.93,0.75 -0.41,72.625 -2.15,-1.265 -4.54,-3.512 -6,-4.515 -31.36,-21.524 -1.66,-11.286 -24.4,-12.887 3.93,36.5 14.24,21.484 -12.74,45.062 10.69,5.332 6.11,2.055 21,4.489 5.69,0.929 1.46,-21.18 9.8,1.507 0.62,1.668 3.11,0.598 4.56,1.2 -15.24,18.175 -32.28,20.316 -51.82,28.992 l 1.92,27.258 c -32.5,-12.719 -65.316,1.562 -91.011,18.507 -41.481,27.356 -44.906,6.633 -80.641,17.454 l -19.223,12.3 c -10.968,-7.812 -10.679,-6.617 -20.394,-12.757 l -18.93,-12.536 c -11.203,19.832 -11.511,26.817 -40.449,32.692 11.879,-21.489 15.559,-21.543 30.5,-51.453 l -15.336,-5.985" /><path
         id="path30"
         style="fill:#040307;fill-opacity:1;fill-rule:evenodd;stroke:none"
         d="m 657.453,1770.2 22.387,-23.8 c -5.086,-18 -7.543,-21.02 -14.707,-31.72 22.855,-7.81 6.867,6.62 26.398,-18.58 l -21.808,-11.84 c -2.66,-131.71 -0.496,-32.59 4.105,-86.8 0.008,-0.15 -3.598,-31.69 -3.73,-33.48 36.035,-18.76 32.41,10.75 13.761,-31.71 l 21.215,-13.5 c 5.703,-8.16 2.164,-9.25 -0.394,-26.89 29.613,16.38 -0.918,7.9 27.351,14.03 8.528,-38.9 2.739,-5.37 9.672,-21.3 0.496,-1.14 1.797,-3.26 2.227,-4.41 l 3.121,-17.88 c 4.449,-19.12 15.531,-22.96 25.355,-35.82 -20.597,-45.34 -7.402,-76.8 -2.539,-105.71 3.102,-18.42 -0.984,-7.58 20.61,-26.45 l -7.532,-29 c -4.039,-14.84 -10.41,-6.52 -13.461,-24.3 42.969,14.81 11.579,-9.01 63.118,19.82 -0.188,-28.21 -6.895,-19.79 15.043,-33.47 3.511,3.23 22.816,19.4 24.261,20.14 l 31.098,12.24 c 48.437,9.72 -11.781,-20.06 34.66,5.76 0.195,0.11 33.133,43.79 44.344,-11.33 5.207,-25.56 -4.375,-22.05 12.066,-51.55 -0.019,12.54 -0.648,40.17 1.817,51.44 6.409,29.37 1.472,2.32 20.089,36.58 14.77,27.16 0.68,14.79 8.8,32.74 12.16,26.87 33.65,7.13 33.66,7.13 6.55,54.01 10.23,32.07 13.93,58.29 4.45,31.56 -7.58,-12.98 0.71,20.4 l 26.94,59.58 c -37.85,36.24 -29.1,59.33 -41.28,93.69 -6.88,19.43 -4.31,15.98 -0.38,44.27 -31.56,13.31 -21.07,10.55 -28.38,46.95 l -34.878,1.84 8.588,28.87 -35.827,-5.67 c 29.637,11.87 22.078,16.12 14.293,45.77 l -21.871,-30.03 -7.851,38.49 c -9.563,30.41 -22.918,0.35 -43.676,51.5 -20.926,-4.83 -13.801,1.89 -20.473,-18.91 -3.527,6.42 -39.816,47.31 -59.394,51.53 -0.77,0.16 -3.477,0.28 -4.094,0.38 l -19.145,27.36 c -6.64,-4.63 -5.922,-5.24 -17.648,-9.53 -58.219,-21.26 -50.93,22.3 -81.543,9.25 -26.641,-11.35 -10.914,-28.08 -17.074,-47.69 -1.184,-3.75 -11.625,-18.51 -14.157,-20.4 -17.617,-13.27 3.278,4.99 -17.777,-6.28" /><path
         id="path32"
         style="fill:#040307;fill-opacity:1;fill-rule:evenodd;stroke:none"
         d="m 4173.15,1820.98 c -4.59,1.75 -78.51,12.56 -93.76,-18.09 -6.95,-13.96 4.87,-2.06 -6.6,-16.62 -16.29,-20.69 -46.74,-36 -70.98,-50.06 12.9,-28.29 -20.55,22.49 4.8,-9.23 l 13,-14.14 c -23.05,3.14 -20.86,4.41 -33.66,17.16 -26.74,-39.9 -13.02,-30.36 -55.13,-17.05 8.56,-26.16 4.68,-18.23 25.65,-27.85 -7.85,-17.55 -7.19,-14.89 -14.22,-31.33 l -5.64,28.44 c -13.81,-21.38 -11.16,-28.53 -31,-46.85 l 24.4,-6.8 c 0.51,-0.08 2.65,-0.48 3.04,-0.54 0.35,-0.06 1.88,-0.14 2.67,-0.58 l -48.53,-12.39 c -6.74,-47.31 16.54,0.77 -0.47,-33.53 -0.86,-1.73 -2.96,-4.85 -3.79,-6.39 -0.94,-1.74 -3.02,-4.73 -4.03,-7.32 20.49,-2.1 19.75,3.88 35.08,-4.31 l -42.31,-4.52 c 14.06,-4.62 14.28,-38 19.92,-50.5 l -23.86,-15.87 32.38,-15.86 -14.44,-18.62 c -0.78,-0.9 -2.77,-2.89 -4.13,-4.36 31.84,-10.31 9.2,-9.29 33.03,-30.48 37.21,19.68 -0.66,13.89 37.73,19.55 l -22.75,-31.6 39.58,-8.15 c 20,-1.4 -3.39,2.12 9.92,2.03 0.69,-0.01 2.83,-0.03 3.55,-0.09 l 92.7,-25.92 c 38.61,-11.23 27.58,-3.97 58.58,-20.81 19.22,12.06 16.97,9.44 46.31,9.38 5.89,20.88 3.52,0.04 3.33,31.03 l 30.61,-13.94 c 6.74,24.05 -7.15,39.35 41.89,51.44 l -3.5,42.81 29.73,1.41 c 3.42,46.61 -3.3,33.59 28.71,46.36 37,14.76 24.9,-3.5 4.29,33.55 35.09,-3.63 12.75,-9.25 33.25,5.75 8.81,6.46 10.41,12.76 15.97,23.61 -10.38,34.96 11.05,24.55 -24.29,24.86 l 23.71,20.03 -5.19,71.91 c 0.49,1.38 1.25,3.78 1.96,5.16 l 17.13,18.87 c -16.88,12.08 -18.88,18.71 -45.11,23.67 l 16.45,18.71 c 5.23,4.82 6.35,5.82 13.19,8.83 -14.27,18.21 -13.19,15.88 -33.97,28.89 l 2.82,38.52 c -22.35,-4.19 -8.69,-2.81 -23.88,-12.45 -7.95,27.88 -25.46,35.67 -83.41,35.91 -7.47,-8.25 -13.26,-15.07 -23.57,-21.61 l -30.35,22.1 3.19,-52.12" /><path
         id="path34"
         style="fill:#040307;fill-opacity:1;fill-rule:evenodd;stroke:none"
         d="m 3417.13,329.703 c -11.18,3.852 -8.27,2.688 -18.08,15.711 -1.1,-1.949 -2.39,-4.609 -2.99,-6.031 l -9.51,-29.574 -35.08,0.789 c -9.52,-22.578 1.51,2.715 -13.62,-18.317 -6.84,-9.496 -29.41,-2.996 1.4,-19.09 l -27.43,9.696 -11.07,-25.43 c -12.35,-18.621 -10.5,-9.727 -26.05,-17.93 l 23.43,-18.406 c -25.18,-1.586 -33.99,-2.238 -38,-27.707 l -0.26,-10.613 c -1.24,-22.598 -10.92,-21.426 8.55,-35.129 44.92,-31.594 -1.9,22.715 25.06,-8.777 12.96,8.449 -1.57,-3.043 -1.75,-4.805 l -0.47,-14.996 c -2.14,-29.1604 -17.27,-36.7424 28.88,-27.719 -10.41,-25.0664 -4.83,-6.9414 -9.59,-40.1289 25.33,6.1836 9.47,12.1953 34.65,-0.6094 9.57,-4.8711 7.29,-10.4726 21.25,-12.9336 14.84,-2.6133 53.54,-6.4375 72.27,2.0664 l 25.85,-23.2109 46.58,50.2344 c 10.56,4.6601 19.06,-6.2617 25.15,26.2383 33.27,-6.7813 -5.92,-2.668 29.31,-10.379 L 3586,140.945 c -1.21,0.461 -4.02,1.508 -5.25,1.938 -42.49,14.871 5.61,-3.801 -15.87,4.367 l 19.31,33.254 c 15.64,-14.566 19.11,-5.266 21.22,-4.422 l -41.75,53.113 c -43.84,55.438 -9.79,54.723 -31.06,59.977 l -50.73,17.668 c 22.92,11.558 20.58,-7.805 5.52,29.664 l -70.26,-6.801" /><path
         id="path36"
         style="fill:#040307;fill-opacity:1;fill-rule:evenodd;stroke:none"
         d="m 1641.04,282.035 c -27.86,7.184 -8.51,4.035 -22.95,16.055 -39.28,32.683 23.36,-10.145 -9.27,7.223 -27.23,14.492 -32.97,-10.098 -50.43,35.21 -9.06,-12.722 -7.82,-21.132 -31.6,-22.238 -43.52,-2.023 -18.25,3.832 -25.72,6.848 l -13.36,6.492 c -20.01,-33.723 -38.39,-53.375 -24.26,-82.383 -37.85,13.461 0.07,13.563 -33.3,7.942 -23.42,-3.946 4.82,-12.317 -29.63,3.382 2.01,-65.75 -33.84,-58.593 -40.54,-60.691 12.5,-13.508 20.79,-12.488 26.69,-28.844 6.12,-16.968 -2.86,-22.883 -5.85,-38.804 -5.89,-31.391 18.37,-39.7387 29.88,-70.6606 14.13,5.0508 24.51,8.6563 39.41,13.6211 l 1.74,-30.9023 c 60.95,-1.9297 7.66,-2.875 43.79,-26.6485 0.3,0.8242 0.54,2.2656 0.65,2.5391 l 2.54,6.414 c 4.95,11.3829 5.72,8.0665 36.47,11.25 1.56,-2.125 3.35,-4.9062 4.32,-6.621 l 11.68,-28.68364 25.38,5.16406 c 6.33,47.76168 -21.45,-12.52344 -5.04,33.55078 12.26,6.2188 -18.03,12.9844 23.68,4.2813 4.32,-0.9063 13.06,-8.5235 19.28,-11.3321 19.31,36.6914 -5.51,25.0742 28.36,10.6758 2.36,33.8086 10.99,11.3906 -13.91,19.332 l 9.9,7.711 c 1.28,1.1523 3.51,2.6445 4.86,3.9726 19.06,18.8203 12.92,23.0274 25.24,46.6874 25.18,-9.191 17.39,-18.379 42.82,-27.4452 -11.18,55.8082 -19.5,10.8012 -30.12,50.6562 -4.32,16.195 12.07,14.672 -18.02,38.219 l 37.45,51.043 c -30.63,20.25 -21.49,28.027 -65.11,12.504 l 4.97,34.48" /></g></g></svg>